<?xml version="1.0" encoding="UTF-8"?>
<svg fill-rule="evenodd" image-rendering="optimizeQuality" shape-rendering="geometricPrecision" viewBox="0 0 512 512" xmlns="http://www.w3.org/2000/svg">
<path d="M351.5 38.5l136.5 135c.667 1 .667 2 0 3l-58 58-111.5-112 33-84z" opacity=".973"/>
<path d="m191.5 43.5 87 19.5c-54.462 29.095-102.63 66.595-144.5 112.5-43.806 47.931-80.972 100.6-111.5 158 1.514-83.345 30.014-156.01 85.5-218 25.201-27.447 53.034-51.447 83.5-72z" opacity=".971"/>
<path d="M95.5 59.5a4.93 4.93 0 0 1 3 .5l20 20c-10.022 9.921-19.689 20.088-29 30.5-7.63-6.959-14.963-14.126-22-21.5 9.16-9.993 18.493-19.826 28-29.5z" opacity=".922"/>
<path d="M449.5 59.5a4.93 4.93 0 0 1 3 .5l29 29-27.5 25.5a403.07 403.07 0 0 1-29.5-29l25-26z" opacity=".925"/>
<path d="m186.5 148.5 75 74.5a1012.4 1012.4 0 0 1-27 26.5l-76-73c9.048-9.715 18.381-19.048 28-28zm153 21c9.746 8.242 19.079 17.075 28 26.5-59.082 56.081-117.25 113.25-174.5 171.5l-96.5 105c-9.653-9.152-19.153-18.486-28.5-28-0.667-1-0.667-2 0-3l271.5-272z" opacity=".96"/>
<path d="M311.5 273.5l169.5 168c.667.667.667 1.333 0 2L452.5 472c-2.593-.546-4.76-2.046-6.5-4.5-51.511-57.183-104.844-112.849-160-167-.667-.667-.667-1.333 0-2a300.89 300.89 0 0 0 25.5-25z" opacity=".961"/>
</svg>